<svg width="156" height="26" viewBox="0 0 156 26" fill="none" xmlns="http://www.w3.org/2000/svg">
<path d="M0.618 25V2.832H6.092L9.662 12.692C9.88867 13.3493 10.104 14.0293 10.308 14.732C10.512 15.412 10.7273 16.092 10.954 16.772H11.09C11.3167 16.092 11.5207 15.412 11.702 14.732C11.906 14.0293 12.1213 13.3493 12.348 12.692L15.85 2.832H21.29V25H16.734V16.874C16.734 16.33 16.7567 15.7293 16.802 15.072C16.8473 14.4147 16.904 13.7573 16.972 13.1C17.04 12.42 17.108 11.7627 17.176 11.128C17.244 10.4707 17.312 9.87 17.38 9.326H17.244L15.442 14.596L12.28 23.062H9.526L6.364 14.596L4.596 9.326H4.46C4.528 9.87 4.596 10.4707 4.664 11.128C4.732 11.7627 4.8 12.42 4.868 13.1C4.936 13.7573 4.99267 14.4147 5.038 15.072C5.08333 15.7293 5.106 16.33 5.106 16.874V25H0.618ZM33.6564 25.408C32.4551 25.408 31.3331 25.2153 30.2904 24.83C29.2478 24.422 28.3411 23.844 27.5704 23.096C26.7998 22.3253 26.1991 21.396 25.7684 20.308C25.3378 19.22 25.1224 17.9733 25.1224 16.568C25.1224 15.208 25.3491 13.984 25.8024 12.896C26.2558 11.7853 26.8451 10.856 27.5704 10.108C28.3184 9.33733 29.1684 8.748 30.1204 8.34C31.0724 7.932 32.0584 7.728 33.0784 7.728C34.2798 7.728 35.3224 7.932 36.2064 8.34C37.1131 8.748 37.8611 9.31467 38.4504 10.04C39.0624 10.7653 39.5158 11.6267 39.8104 12.624C40.1051 13.5987 40.2524 14.664 40.2524 15.82C40.2524 16.2733 40.2298 16.704 40.1844 17.112C40.1391 17.52 40.0938 17.826 40.0484 18.03H29.9504C30.1771 19.254 30.6758 20.1607 31.4464 20.75C32.2398 21.3167 33.2031 21.6 34.3364 21.6C35.5378 21.6 36.7504 21.226 37.9744 20.478L39.6404 23.504C38.7791 24.0933 37.8158 24.558 36.7504 24.898C35.7078 25.238 34.6764 25.408 33.6564 25.408ZM29.9164 14.732H36.0024C36.0024 13.78 35.7871 13.0093 35.3564 12.42C34.9258 11.8307 34.2004 11.536 33.1804 11.536C32.3871 11.536 31.6844 11.7967 31.0724 12.318C30.4831 12.8393 30.0978 13.644 29.9164 14.732ZM49.7241 25.408C48.6814 25.408 47.7294 25.204 46.8681 24.796C46.0294 24.388 45.3041 23.81 44.6921 23.062C44.1028 22.2913 43.6381 21.362 43.2981 20.274C42.9808 19.186 42.8221 17.9507 42.8221 16.568C42.8221 15.1853 43.0148 13.95 43.4001 12.862C43.8081 11.774 44.3294 10.856 44.9641 10.108C45.6214 9.33733 46.3694 8.748 47.2081 8.34C48.0694 7.932 48.9421 7.728 49.8261 7.728C50.7781 7.728 51.5601 7.88667 52.1721 8.204C52.7841 8.52133 53.3848 8.952 53.9741 9.496L53.7701 6.912V1.166H58.7681V25H54.6881L54.3481 23.334H54.2121C53.6228 23.9233 52.9314 24.422 52.1381 24.83C51.3448 25.2153 50.5401 25.408 49.7241 25.408ZM51.0161 21.328C51.5601 21.328 52.0474 21.2147 52.4781 20.988C52.9314 20.7613 53.3621 20.3647 53.7701 19.798V12.896C53.3168 12.488 52.8521 12.2047 52.3761 12.046C51.9001 11.8873 51.4354 11.808 50.9821 11.808C50.1888 11.808 49.4861 12.1933 48.8741 12.964C48.2621 13.712 47.9561 14.8907 47.9561 16.5C47.9561 18.1773 48.2168 19.4013 48.7381 20.172C49.2821 20.9427 50.0414 21.328 51.0161 21.328ZM63.1963 25V8.136H68.1943V25H63.1963ZM65.6783 5.654C64.8397 5.654 64.1483 5.416 63.6043 4.94C63.0603 4.44133 62.7883 3.80667 62.7883 3.036C62.7883 2.26533 63.0603 1.642 63.6043 1.166C64.1483 0.689998 64.8397 0.451998 65.6783 0.451998C66.5397 0.451998 67.231 0.689998 67.7523 1.166C68.2963 1.642 68.5683 2.26533 68.5683 3.036C68.5683 3.80667 68.2963 4.44133 67.7523 4.94C67.231 5.416 66.5397 5.654 65.6783 5.654Z" fill="#0073FF"/>
<path d="M82.2488 25.408C80.8435 25.408 79.5175 25.17 78.2708 24.694C77.0241 24.1953 75.9248 23.47 74.9728 22.518C74.0435 21.566 73.3068 20.3873 72.7628 18.982C72.2188 17.554 71.9468 15.9107 71.9468 14.052C71.9468 12.216 72.2301 10.584 72.7968 9.156C73.3635 7.70533 74.1228 6.48133 75.0748 5.484C76.0268 4.48667 77.1375 3.72733 78.4068 3.206C79.6761 2.68467 81.0135 2.424 82.4188 2.424C83.8468 2.424 85.1275 2.71867 86.2608 3.308C87.3941 3.87467 88.3348 4.54333 89.0828 5.314L86.4308 8.51C85.8641 7.98867 85.2635 7.56933 84.6288 7.252C84.0168 6.912 83.3141 6.742 82.5208 6.742C81.7728 6.742 81.0588 6.912 80.3788 7.252C79.7215 7.56933 79.1435 8.034 78.6448 8.646C78.1688 9.258 77.7835 10.006 77.4888 10.89C77.2168 11.774 77.0808 12.7713 77.0808 13.882C77.0808 16.1713 77.5681 17.9507 78.5428 19.22C79.5175 20.4667 80.8208 21.09 82.4528 21.09C83.3595 21.09 84.1641 20.8973 84.8668 20.512C85.5921 20.104 86.2268 19.6053 86.7708 19.016L89.4228 22.144C87.5641 24.32 85.1728 25.408 82.2488 25.408ZM96.6319 25.408C95.8612 25.408 95.1585 25.272 94.5239 25C93.9119 24.7507 93.3905 24.3993 92.9599 23.946C92.5292 23.47 92.1892 22.926 91.9399 22.314C91.7132 21.702 91.5999 21.0333 91.5999 20.308C91.5999 18.54 92.3479 17.1573 93.8439 16.16C95.3399 15.1627 97.7539 14.494 101.086 14.154C101.041 13.406 100.814 12.8167 100.406 12.386C100.021 11.9327 99.3632 11.706 98.4339 11.706C97.7085 11.706 96.9832 11.842 96.2579 12.114C95.5552 12.386 94.7959 12.76 93.9799 13.236L92.1779 9.938C93.2659 9.28067 94.3992 8.748 95.5779 8.34C96.7792 7.932 98.0485 7.728 99.3859 7.728C101.562 7.728 103.217 8.35133 104.35 9.598C105.506 10.822 106.084 12.7373 106.084 15.344V25H102.004L101.664 23.266H101.528C100.803 23.9007 100.043 24.422 99.2499 24.83C98.4565 25.2153 97.5839 25.408 96.6319 25.408ZM98.3319 21.532C98.8985 21.532 99.3859 21.4073 99.7939 21.158C100.202 20.9087 100.633 20.5573 101.086 20.104V17.146C99.3179 17.3953 98.0939 17.758 97.4139 18.234C96.7339 18.71 96.3939 19.2767 96.3939 19.934C96.3939 20.478 96.5639 20.886 96.9039 21.158C97.2665 21.4073 97.7425 21.532 98.3319 21.532ZM110.312 25V8.136H114.392L114.732 11.094H114.868C115.48 9.938 116.216 9.088 117.078 8.544C117.939 8 118.8 7.728 119.662 7.728C120.138 7.728 120.523 7.762 120.818 7.83C121.135 7.87533 121.418 7.95467 121.668 8.068L120.852 12.386C120.534 12.2953 120.24 12.2273 119.968 12.182C119.696 12.1367 119.378 12.114 119.016 12.114C118.381 12.114 117.712 12.3407 117.01 12.794C116.33 13.2473 115.763 14.052 115.31 15.208V25H110.312ZM131.074 25.408C129.873 25.408 128.751 25.2153 127.708 24.83C126.666 24.422 125.759 23.844 124.988 23.096C124.218 22.3253 123.617 21.396 123.186 20.308C122.756 19.22 122.54 17.9733 122.54 16.568C122.54 15.208 122.767 13.984 123.22 12.896C123.674 11.7853 124.263 10.856 124.988 10.108C125.736 9.33733 126.586 8.748 127.538 8.34C128.49 7.932 129.476 7.728 130.496 7.728C131.698 7.728 132.74 7.932 133.624 8.34C134.531 8.748 135.279 9.31467 135.868 10.04C136.48 10.7653 136.934 11.6267 137.228 12.624C137.523 13.5987 137.67 14.664 137.67 15.82C137.67 16.2733 137.648 16.704 137.602 17.112C137.557 17.52 137.512 17.826 137.466 18.03H127.368C127.595 19.254 128.094 20.1607 128.864 20.75C129.658 21.3167 130.621 21.6 131.754 21.6C132.956 21.6 134.168 21.226 135.392 20.478L137.058 23.504C136.197 24.0933 135.234 24.558 134.168 24.898C133.126 25.238 132.094 25.408 131.074 25.408ZM127.334 14.732H133.42C133.42 13.78 133.205 13.0093 132.774 12.42C132.344 11.8307 131.618 11.536 130.598 11.536C129.805 11.536 129.102 11.7967 128.49 12.318C127.901 12.8393 127.516 13.644 127.334 14.732ZM146.054 21.804V15.548H140.07V12.012H146.054V5.756H149.726V12.012H155.71V15.548H149.726V21.804H146.054Z" fill="#FF9F6A"/>
</svg>
