<svg width="97" height="130" viewBox="0 0 97 130" fill="none" xmlns="http://www.w3.org/2000/svg">
<path fill-rule="evenodd" clip-rule="evenodd" d="M87.4415 15.6383H70.008V14.0212C70.008 12.6407 68.8887 11.5212 67.508 11.5212H59.2925C59.281 5.71775 54.5562 1 48.75 1C42.9437 1 38.219 5.71775 38.2075 11.5212H29.992C28.6112 11.5212 27.492 12.6407 27.492 14.0212V15.6383H10.0585C5.08998 15.6383 1.04773 19.6805 1.04773 24.649V119.989C1.04773 122.454 1.04773 129 7.55848 129H87.4415C92.41 129 96.452 124.958 96.452 119.989V24.649C96.4522 19.6805 92.41 15.6383 87.4415 15.6383ZM32.492 16.5212H41.0967C41.8965 16.5212 42.648 16.1388 43.1185 15.492C43.589 14.8452 43.7215 14.0125 43.4752 13.2515C43.2975 12.7025 43.2075 12.1275 43.2075 11.5425C43.2075 8.48625 45.6937 6 48.75 6C51.8062 6 54.2925 8.48625 54.2925 11.5425C54.2925 12.1275 54.2025 12.7025 54.0247 13.2515C53.7785 14.0125 53.911 14.8452 54.3815 15.492C54.852 16.1388 55.6035 16.5212 56.4032 16.5212H65.008V26.6385H32.492V16.5212ZM87.4417 124C89.653 124 91.4522 122.201 91.4522 119.989H91.452V24.649C91.452 22.4375 89.653 20.6383 87.4415 20.6383H70.008V26.6385H82.952C84.3327 26.6385 85.452 27.758 85.452 29.1385V62.6198C85.452 64.0005 84.3327 65.1198 82.952 65.1198C81.5712 65.1198 80.452 64.0005 80.452 62.6198V31.6385H17.0477V113H80.4522V85.2228C80.4522 83.8423 81.5715 82.7227 82.9522 82.7227C84.333 82.7227 85.4522 83.8423 85.4522 85.2228V115.5C85.4522 116.881 84.333 118 82.9522 118H14.548C13.1672 118 12.048 116.881 12.048 115.5V29.1385C12.048 27.758 13.1672 26.6385 14.548 26.6385H27.492V20.6383H10.0585C7.84698 20.6383 6.04773 22.4375 6.04773 24.649V119.989C6.04773 121.222 6.09548 122.738 6.46773 123.531C6.58598 123.783 6.68823 124 7.55848 124H87.4417Z" fill="#007EF3"/>
<path d="M70.008 15.6383H69.508V16.1383H70.008V15.6383ZM59.2925 11.5212L58.7925 11.5222L58.7935 12.0212H59.2925V11.5212ZM38.2075 11.5212V12.0212H38.7065L38.7075 11.5222L38.2075 11.5212ZM27.492 15.6383V16.1383H27.992V15.6383H27.492ZM96.452 24.649L95.952 24.649V24.649H96.452ZM32.492 16.5212V16.0212H31.992V16.5212H32.492ZM43.4752 13.2515L43.9509 13.0976L43.9509 13.0975L43.4752 13.2515ZM54.0247 13.2515L53.549 13.0975L53.549 13.0976L54.0247 13.2515ZM54.3815 15.492L53.9771 15.7861V15.7861L54.3815 15.492ZM65.008 16.5212H65.508V16.0212H65.008V16.5212ZM65.008 26.6385V27.1385H65.508V26.6385H65.008ZM32.492 26.6385H31.992V27.1385H32.492V26.6385ZM91.4522 119.989H91.9522V119.489H91.4522V119.989ZM91.452 119.989H90.952V120.489H91.452V119.989ZM70.008 20.6383V20.1383H69.508V20.6383H70.008ZM70.008 26.6385H69.508V27.1385H70.008V26.6385ZM80.452 31.6385H80.952V31.1385H80.452V31.6385ZM17.0477 31.6385V31.1385H16.5477V31.6385H17.0477ZM17.0477 113H16.5477V113.5H17.0477V113ZM80.4522 113V113.5H80.9522V113H80.4522ZM27.492 26.6385V27.1385H27.992V26.6385H27.492ZM27.492 20.6383H27.992V20.1383H27.492V20.6383ZM6.46773 123.531L6.92037 123.318L6.92029 123.318L6.46773 123.531ZM70.008 16.1383H87.4415V15.1383H70.008V16.1383ZM69.508 14.0212V15.6383H70.508V14.0212H69.508ZM67.508 12.0212C68.6126 12.0212 69.508 12.9169 69.508 14.0212H70.508C70.508 12.3646 69.1649 11.0212 67.508 11.0212V12.0212ZM59.2925 12.0212H67.508V11.0212H59.2925V12.0212ZM48.75 1.5C54.2804 1.5 58.7815 5.99443 58.7925 11.5222L59.7925 11.5203C59.7804 5.44106 54.8321 0.5 48.75 0.5V1.5ZM38.7075 11.5222C38.7184 5.99443 43.2195 1.5 48.75 1.5V0.5C42.6679 0.5 37.7195 5.44106 37.7075 11.5203L38.7075 11.5222ZM29.992 12.0212H38.2075V11.0212H29.992V12.0212ZM27.992 14.0212C27.992 12.9169 28.8874 12.0212 29.992 12.0212V11.0212C28.3351 11.0212 26.992 12.3646 26.992 14.0212H27.992ZM27.992 15.6383V14.0212H26.992V15.6383H27.992ZM10.0585 16.1383H27.492V15.1383H10.0585V16.1383ZM1.54773 24.649C1.54773 19.9566 5.36612 16.1383 10.0585 16.1383V15.1383C4.81384 15.1383 0.547729 19.4044 0.547729 24.649H1.54773ZM1.54773 119.989V24.649H0.547729V119.989H1.54773ZM7.55848 128.5C6.01839 128.5 4.90298 128.114 4.08455 127.531C3.26291 126.946 2.7034 126.135 2.32281 125.226C1.55323 123.387 1.54773 121.233 1.54773 119.989H0.547729C0.547729 121.21 0.542228 123.561 1.40034 125.612C1.83359 126.647 2.49485 127.627 3.50435 128.346C4.51707 129.067 5.84319 129.5 7.55848 129.5V128.5ZM87.4415 128.5H7.55848V129.5H87.4415V128.5ZM95.952 119.989C95.952 124.682 92.1338 128.5 87.4415 128.5V129.5C92.6861 129.5 96.952 125.234 96.952 119.989H95.952ZM95.952 24.649V119.989H96.952V24.649H95.952ZM87.4415 16.1383C92.1338 16.1383 95.9522 19.9566 95.952 24.649L96.952 24.649C96.9522 19.4044 92.6861 15.1383 87.4415 15.1383V16.1383ZM41.0967 16.0212H32.492V17.0212H41.0967V16.0212ZM42.7142 15.1979C42.3378 15.7152 41.7366 16.0212 41.0967 16.0212V17.0212C42.0564 17.0212 42.9582 16.5623 43.5228 15.7861L42.7142 15.1979ZM42.9995 13.4054C43.1965 14.0143 43.0905 14.6805 42.7142 15.1979L43.5228 15.7861C44.0875 15.01 44.2464 14.0107 43.9509 13.0976L42.9995 13.4054ZM42.7075 11.5425C42.7075 12.179 42.8054 12.806 42.9995 13.4055L43.9509 13.0975C43.7895 12.599 43.7075 12.076 43.7075 11.5425H42.7075ZM48.75 5.5C45.4176 5.5 42.7075 8.21011 42.7075 11.5425H43.7075C43.7075 8.76239 45.9699 6.5 48.75 6.5V5.5ZM54.7925 11.5425C54.7925 8.21011 52.0824 5.5 48.75 5.5V6.5C51.5301 6.5 53.7925 8.76239 53.7925 11.5425H54.7925ZM54.5004 13.4055C54.6945 12.806 54.7925 12.179 54.7925 11.5425H53.7925C53.7925 12.076 53.7104 12.599 53.549 13.0975L54.5004 13.4055ZM54.7858 15.1979C54.4095 14.6805 54.3034 14.0143 54.5004 13.4054L53.549 13.0976C53.2536 14.0107 53.4125 15.01 53.9771 15.7861L54.7858 15.1979ZM56.4032 16.0212C55.7634 16.0212 55.1622 15.7152 54.7858 15.1979L53.9771 15.7861C54.5418 16.5623 55.4436 17.0212 56.4032 17.0212V16.0212ZM65.008 16.0212H56.4032V17.0212H65.008V16.0212ZM65.508 26.6385V16.5212H64.508V26.6385H65.508ZM32.492 27.1385H65.008V26.1385H32.492V27.1385ZM31.992 16.5212V26.6385H32.992V16.5212H31.992ZM90.9522 119.989C90.9522 121.925 89.3768 123.5 87.4417 123.5V124.5C89.9291 124.5 91.9522 122.477 91.9522 119.989H90.9522ZM91.452 120.489H91.4522V119.489H91.452V120.489ZM90.952 24.649V119.989H91.952V24.649H90.952ZM87.4415 21.1383C89.3768 21.1383 90.952 22.7136 90.952 24.649H91.952C91.952 22.1614 89.9292 20.1383 87.4415 20.1383V21.1383ZM70.008 21.1383H87.4415V20.1383H70.008V21.1383ZM70.508 26.6385V20.6383H69.508V26.6385H70.508ZM82.952 26.1385H70.008V27.1385H82.952V26.1385ZM85.952 29.1385C85.952 27.4819 84.6089 26.1385 82.952 26.1385V27.1385C84.0566 27.1385 84.952 28.0341 84.952 29.1385H85.952ZM85.952 62.6198V29.1385H84.952V62.6198H85.952ZM82.952 65.6198C84.6089 65.6198 85.952 64.2766 85.952 62.6198H84.952C84.952 63.7244 84.0566 64.6198 82.952 64.6198V65.6198ZM79.952 62.6198C79.952 64.2766 81.2951 65.6198 82.952 65.6198V64.6198C81.8474 64.6198 80.952 63.7244 80.952 62.6198H79.952ZM79.952 31.6385V62.6198H80.952V31.6385H79.952ZM17.0477 32.1385H80.452V31.1385H17.0477V32.1385ZM17.5477 113V31.6385H16.5477V113H17.5477ZM80.4522 112.5H17.0477V113.5H80.4522V112.5ZM79.9522 85.2228V113H80.9522V85.2228H79.9522ZM82.9522 82.2227C81.2953 82.2227 79.9522 83.5661 79.9522 85.2228H80.9522C80.9522 84.1184 81.8477 83.2227 82.9522 83.2227V82.2227ZM85.9522 85.2228C85.9522 83.5661 84.6092 82.2227 82.9522 82.2227V83.2227C84.0568 83.2227 84.9522 84.1184 84.9522 85.2228H85.9522ZM85.9522 115.5V85.2228H84.9522V115.5H85.9522ZM82.9522 118.5C84.6092 118.5 85.9522 117.157 85.9522 115.5H84.9522C84.9522 116.604 84.0568 117.5 82.9522 117.5V118.5ZM14.548 118.5H82.9522V117.5H14.548V118.5ZM11.548 115.5C11.548 117.157 12.8911 118.5 14.548 118.5V117.5C13.4434 117.5 12.548 116.604 12.548 115.5H11.548ZM11.548 29.1385V115.5H12.548V29.1385H11.548ZM14.548 26.1385C12.8911 26.1385 11.548 27.4819 11.548 29.1385H12.548C12.548 28.0341 13.4434 27.1385 14.548 27.1385V26.1385ZM27.492 26.1385H14.548V27.1385H27.492V26.1385ZM26.992 20.6383V26.6385H27.992V20.6383H26.992ZM10.0585 21.1383H27.492V20.1383H10.0585V21.1383ZM6.54773 24.649C6.54773 22.7136 8.12312 21.1383 10.0585 21.1383V20.1383C7.57084 20.1383 5.54773 22.1614 5.54773 24.649H6.54773ZM6.54773 119.989V24.649H5.54773V119.989H6.54773ZM6.92029 123.318C6.77317 123.005 6.67355 122.501 6.61601 121.879C6.55972 121.27 6.54773 120.602 6.54773 119.989H5.54773C5.54773 120.609 5.55962 121.315 5.62026 121.971C5.67966 122.613 5.79003 123.264 6.01517 123.743L6.92029 123.318ZM7.55848 123.5C7.14628 123.5 7.01263 123.445 6.98062 123.426C6.98037 123.426 6.97999 123.445 6.92037 123.318L6.01509 123.743C6.07372 123.868 6.18359 124.121 6.48159 124.293C6.74783 124.446 7.10043 124.5 7.55848 124.5V123.5ZM87.4417 123.5H7.55848V124.5H87.4417V123.5Z" fill="#007EF3"/>
</svg>
