<svg width="130" height="116" viewBox="0 0 130 116" fill="none" xmlns="http://www.w3.org/2000/svg">
<path fill-rule="evenodd" clip-rule="evenodd" d="M128.84 98.1777L122.541 54.6889C121.185 45.3254 116.498 36.7584 109.344 30.5667C102.191 24.3747 93.0405 20.9647 83.5792 20.9647C79.8872 20.9647 76.4227 22.3404 73.748 24.6409V9.82544C73.748 5.00069 69.8227 1.07544 64.998 1.07544C60.1732 1.07544 56.248 5.00069 56.248 9.82544V24.6352C53.5757 22.3374 50.1137 20.9647 46.4167 20.9647C36.9555 20.9647 27.8052 24.3749 20.6517 30.5667C13.4982 36.7589 8.8115 45.3254 7.45525 54.6889L1.156 98.1777C0.528245 102.512 1.81225 106.898 4.67875 110.21C7.54525 113.521 11.7012 115.421 16.0812 115.421H46.4165C54.7322 115.421 61.4975 108.655 61.4975 100.34V63.4499C62.735 62.4144 63.904 61.2859 64.9975 60.0694C66.091 61.2859 67.2602 62.4142 68.4977 63.4499V67.6847C68.4977 69.0652 69.617 70.1847 70.9977 70.1847C72.3785 70.1847 73.4977 69.0652 73.4977 67.6847V66.9204C75.1625 67.8659 76.9107 68.6717 78.7297 69.3297C79.1062 79.8834 84.6462 84.9644 92.3622 90.9024C92.8167 91.2519 93.353 91.4214 93.8852 91.4214C94.6347 91.4214 95.3757 91.0857 95.8682 90.4459C96.7103 89.3519 96.506 87.7822 95.4117 86.9402C88.2525 81.4302 84.501 77.7624 83.8222 70.6654C84.0577 70.6844 84.293 70.6942 84.5277 70.6942C86.1237 70.6942 87.6937 70.2542 89.0885 69.3982C90.2135 68.7077 91.1485 67.7932 91.8475 66.7184C94.8407 69.2089 98.3045 70.3454 103.02 70.5004C103.048 70.5014 103.076 70.5019 103.103 70.5019C104.446 70.5019 105.556 69.4359 105.601 68.0842C105.646 66.7042 104.564 65.5487 103.184 65.5034C99.282 65.3747 96.2292 64.5702 93.2155 61.0354C92.8392 57.4489 90.2507 54.3172 86.5487 53.4309C79.5165 51.7477 74.3835 45.8024 73.7477 38.6199V33.8027C74.7792 29.2579 78.9062 25.9642 83.579 25.9642C100.538 25.9642 115.161 38.6212 117.592 55.4054L123.891 98.8942C124.311 101.792 123.452 104.723 121.536 106.937C119.62 109.151 116.842 110.42 113.914 110.42H83.5792C78.0205 110.42 73.4982 105.898 73.4982 100.339V90.2879C73.4982 88.9074 72.379 87.7879 70.9982 87.7879C69.6175 87.7879 68.4982 88.9074 68.4982 90.2879V100.339C68.4982 108.655 75.2635 115.42 83.5792 115.42H113.914C118.294 115.42 122.451 113.521 125.317 110.209C128.184 106.898 129.468 102.512 128.84 98.1777ZM56.498 100.339C56.498 105.898 51.9757 110.42 46.417 110.42H16.0815C13.1537 110.42 10.3755 109.151 8.45925 106.937C6.543 104.723 5.68475 101.792 6.1045 98.8942L12.4035 55.4054C14.8347 38.6212 29.4572 25.9642 46.4167 25.9642C51.098 25.9642 55.2152 29.2542 56.248 33.8022V38.6202C55.612 45.8027 50.4792 51.7477 43.447 53.4309C39.7452 54.3172 37.1567 57.4489 36.7805 61.0354C33.7667 64.5699 30.714 65.3747 26.8112 65.5034C25.4312 65.5489 24.3495 66.7044 24.3947 68.0842C24.4392 69.4362 25.5492 70.5019 26.892 70.5019C26.9197 70.5019 26.9477 70.5014 26.9757 70.5004C31.6905 70.3454 35.1542 69.2092 38.1472 66.7192C39.7227 69.1494 42.4432 70.6922 45.479 70.6922C45.7105 70.6922 45.9422 70.6827 46.1735 70.6642C45.4952 77.7619 41.7437 81.4299 34.584 86.9402C33.49 87.7822 33.2855 89.3519 34.1275 90.4459C34.62 91.0857 35.361 91.4214 36.1105 91.4214C36.6425 91.4214 37.179 91.2519 37.6335 90.9024C45.3492 84.9644 50.8895 79.8834 51.2657 69.3297C53.0847 68.6717 54.833 67.8659 56.4977 66.9204V100.339H56.498ZM88.159 62.8144C88.6402 60.8032 87.396 58.7757 85.385 58.2942C76.2145 56.0987 69.532 48.3179 68.7567 38.9327C68.751 38.8644 68.7482 38.7954 68.7482 38.7269V9.82544C68.7482 7.75769 67.066 6.07544 64.9982 6.07544C62.9305 6.07544 61.2482 7.75769 61.2482 9.82544V38.7274C61.2482 38.7959 61.2455 38.8649 61.2397 38.9332C60.4642 48.3182 53.7817 56.0989 44.6112 58.2942C42.6002 58.7757 41.3557 60.8032 41.837 62.8142C42.2427 64.5092 43.7402 65.6927 45.479 65.6927C45.772 65.6927 46.0675 65.6574 46.3575 65.5882C52.5245 64.1119 57.9285 60.7662 61.985 55.9137C62.335 55.4947 62.6755 55.0642 62.996 54.6354C63.468 54.0042 64.21 53.6324 64.9982 53.6324C65.7865 53.6324 66.5285 54.0044 67.0005 54.6354C67.322 55.0652 67.6622 55.4954 68.012 55.9142C72.068 60.7662 77.472 64.1119 83.6395 65.5882C84.6135 65.8219 85.62 65.6614 86.4737 65.1372C87.3275 64.6132 87.926 63.7884 88.159 62.8144Z" fill="white"/>
<path d="M122.541 54.6889L122.046 54.7606L122.541 54.6889ZM128.84 98.1777L129.335 98.106V98.106L128.84 98.1777ZM109.344 30.5667L109.017 30.9447L109.017 30.9447L109.344 30.5667ZM73.748 24.6409H73.248V25.7305L74.074 25.02L73.748 24.6409ZM56.248 24.6352L55.922 25.0143L56.748 25.7245V24.6352H56.248ZM20.6517 30.5667L20.3245 30.1886L20.3245 30.1887L20.6517 30.5667ZM7.45525 54.6889L7.95008 54.7606H7.95008L7.45525 54.6889ZM1.156 98.1777L0.661159 98.106L0.661157 98.106L1.156 98.1777ZM4.67875 110.21L4.30069 110.537L4.3007 110.537L4.67875 110.21ZM61.4975 63.4499L61.1766 63.0665L60.9975 63.2164V63.4499H61.4975ZM64.9975 60.0694L65.3693 59.7352L64.9975 59.3215L64.6256 59.7352L64.9975 60.0694ZM68.4977 63.4499H68.9977V63.2164L68.8187 63.0665L68.4977 63.4499ZM73.4977 66.9204L73.7447 66.4857L72.9977 66.0614V66.9204H73.4977ZM78.7297 69.3297L79.2294 69.3119L79.2174 68.9744L78.8998 68.8595L78.7297 69.3297ZM92.3622 90.9024L92.0573 91.2987L92.0574 91.2988L92.3622 90.9024ZM95.8682 90.4459L96.2644 90.7509L96.2645 90.7509L95.8682 90.4459ZM95.4117 86.9402L95.1068 87.3364L95.1068 87.3365L95.4117 86.9402ZM83.8222 70.6654L83.8624 70.1671L83.2677 70.1191L83.3245 70.713L83.8222 70.6654ZM89.0885 69.3982L89.35 69.8243L89.35 69.8243L89.0885 69.3982ZM91.8475 66.7184L92.1673 66.3341L91.735 65.9744L91.4283 66.4458L91.8475 66.7184ZM103.02 70.5004L103.038 70.0008L103.036 70.0007L103.02 70.5004ZM105.601 68.0842L105.101 68.0677L105.101 68.0677L105.601 68.0842ZM103.184 65.5034L103.168 66.0032L103.168 66.0032L103.184 65.5034ZM93.2155 61.0354L92.7182 61.0876L92.7344 61.2418L92.835 61.3598L93.2155 61.0354ZM86.5487 53.4309L86.6652 52.9447L86.6651 52.9447L86.5487 53.4309ZM73.7477 38.6199H73.2477V38.642L73.2497 38.664L73.7477 38.6199ZM73.7477 33.8027L73.2601 33.692L73.2477 33.7467V33.8027H73.7477ZM117.592 55.4054L117.097 55.4771V55.4771L117.592 55.4054ZM123.891 98.8942L123.396 98.9659V98.9659L123.891 98.8942ZM125.317 110.209L124.939 109.882L124.939 109.882L125.317 110.209ZM56.498 100.339H56.998V99.8394H56.498V100.339ZM8.45925 106.937L8.83731 106.61L8.83727 106.61L8.45925 106.937ZM6.1045 98.8942L6.59933 98.9659L6.59933 98.9659L6.1045 98.8942ZM12.4035 55.4054L11.9087 55.3338V55.3338L12.4035 55.4054ZM56.248 33.8022H56.748V33.7461L56.7356 33.6915L56.248 33.8022ZM56.248 38.6202L56.746 38.6643L56.748 38.6423V38.6202H56.248ZM43.447 53.4309L43.3306 52.9447L43.3306 52.9447L43.447 53.4309ZM36.7805 61.0354L37.161 61.3599L37.2616 61.2418L37.2778 61.0876L36.7805 61.0354ZM26.8112 65.5034L26.8277 66.0032H26.8277L26.8112 65.5034ZM24.3947 68.0842L23.895 68.1006L23.895 68.1006L24.3947 68.0842ZM26.9757 70.5004L26.9593 70.0007L26.9579 70.0008L26.9757 70.5004ZM38.1472 66.7192L38.5668 66.4472L38.2604 65.9746L37.8275 66.3348L38.1472 66.7192ZM46.1735 70.6642L46.6712 70.7118L46.7279 70.1182L46.1336 70.1658L46.1735 70.6642ZM34.584 86.9402L34.279 86.544L34.279 86.544L34.584 86.9402ZM34.1275 90.4459L33.7313 90.7509L33.7313 90.7509L34.1275 90.4459ZM37.6335 90.9024L37.9383 91.2988L37.9384 91.2987L37.6335 90.9024ZM51.2657 69.3297L51.0957 68.8595L50.7781 68.9744L50.7661 69.3119L51.2657 69.3297ZM56.4977 66.9204H56.9977V66.0615L56.2508 66.4857L56.4977 66.9204ZM56.4977 100.339H55.9977V100.839H56.4977V100.339ZM85.385 58.2942L85.5014 57.8079L85.5014 57.8079L85.385 58.2942ZM88.159 62.8144L87.6727 62.6981L87.6727 62.6981L88.159 62.8144ZM68.7567 38.9327L69.2551 38.8915L69.255 38.8907L68.7567 38.9327ZM61.2397 38.9332L60.7415 38.8912L60.7414 38.892L61.2397 38.9332ZM44.6112 58.2942L44.4948 57.8079L44.4948 57.8079L44.6112 58.2942ZM41.837 62.8142L41.3507 62.9306L41.3507 62.9306L41.837 62.8142ZM46.3575 65.5882L46.4736 66.0745L46.4739 66.0744L46.3575 65.5882ZM61.985 55.9137L62.3686 56.2344L62.3687 56.2342L61.985 55.9137ZM62.996 54.6354L62.5956 54.336L62.5955 54.3361L62.996 54.6354ZM67.0005 54.6354L66.6001 54.9349L66.6001 54.935L67.0005 54.6354ZM68.012 55.9142L67.6282 56.2347L67.6284 56.2349L68.012 55.9142ZM83.6395 65.5882L83.7562 65.102L83.7559 65.1019L83.6395 65.5882ZM86.4737 65.1372L86.2122 64.7111L86.2121 64.7111L86.4737 65.1372ZM122.046 54.7606L128.345 98.2494L129.335 98.106L123.036 54.6173L122.046 54.7606ZM109.017 30.9447C116.08 37.0578 120.707 45.5161 122.046 54.7606L123.036 54.6173C121.662 45.1348 116.916 36.459 109.671 30.1886L109.017 30.9447ZM83.5792 21.4647C92.9203 21.4647 101.954 24.8314 109.017 30.9447L109.671 30.1886C102.427 23.918 93.1607 20.4647 83.5792 20.4647V21.4647ZM74.074 25.02C76.6624 22.7938 80.0125 21.4647 83.5792 21.4647V20.4647C79.762 20.4647 76.1831 21.8871 73.422 24.2619L74.074 25.02ZM73.248 9.82544V24.6409H74.248V9.82544H73.248ZM64.998 1.57544C69.5466 1.57544 73.248 5.27683 73.248 9.82544H74.248C74.248 4.72455 70.0989 0.575439 64.998 0.575439V1.57544ZM56.748 9.82544C56.748 5.27683 60.4494 1.57544 64.998 1.57544V0.575439C59.8971 0.575439 55.748 4.72455 55.748 9.82544H56.748ZM56.748 24.6352V9.82544H55.748V24.6352H56.748ZM46.4167 21.4647C49.9888 21.4647 53.3364 22.791 55.922 25.0143L56.574 24.2561C53.8151 21.8838 50.2387 20.4647 46.4167 20.4647V21.4647ZM20.979 30.9447C28.0416 24.8316 37.0757 21.4647 46.4167 21.4647V20.4647C36.8353 20.4647 27.5689 23.9182 20.3245 30.1886L20.979 30.9447ZM7.95008 54.7606C9.2891 45.5161 13.9163 37.0583 20.979 30.9447L20.3245 30.1887C13.0801 36.4595 8.33389 45.1348 6.96041 54.6173L7.95008 54.7606ZM1.65083 98.2494L7.95008 54.7606L6.96041 54.6173L0.661159 98.106L1.65083 98.2494ZM5.0568 109.882C2.28526 106.68 1.04388 102.44 1.65083 98.2494L0.661157 98.106C0.0126097 102.584 1.33923 107.115 4.30069 110.537L5.0568 109.882ZM16.0812 114.921C11.8464 114.921 7.82832 113.084 5.05679 109.882L4.3007 110.537C7.26217 113.958 11.5561 115.921 16.0812 115.921V114.921ZM46.4165 114.921H16.0812V115.921H46.4165V114.921ZM60.9975 100.34C60.9975 108.379 54.4561 114.921 46.4165 114.921V115.921C55.0084 115.921 61.9975 108.931 61.9975 100.34H60.9975ZM60.9975 63.4499V100.34H61.9975V63.4499H60.9975ZM64.6256 59.7352C63.5478 60.9342 62.3958 62.0463 61.1766 63.0665L61.8184 63.8334C63.0741 62.7826 64.2602 61.6376 65.3693 60.4037L64.6256 59.7352ZM68.8187 63.0665C67.5993 62.046 66.4471 60.9342 65.3693 59.7352L64.6256 60.4037C65.7349 61.6377 66.9211 62.7824 68.1768 63.8334L68.8187 63.0665ZM68.9977 67.6847V63.4499H67.9977V67.6847H68.9977ZM70.9977 69.6847C69.8932 69.6847 68.9977 68.7891 68.9977 67.6847H67.9977C67.9977 69.3413 69.3408 70.6847 70.9977 70.6847V69.6847ZM72.9977 67.6847C72.9977 68.7891 72.1023 69.6847 70.9977 69.6847V70.6847C72.6547 70.6847 73.9977 69.3413 73.9977 67.6847H72.9977ZM72.9977 66.9204V67.6847H73.9977V66.9204H72.9977ZM78.8998 68.8595C77.1073 68.2111 75.3847 67.4172 73.7447 66.4857L73.2508 67.3552C74.9402 68.3147 76.7142 69.1323 78.5597 69.7999L78.8998 68.8595ZM92.6672 90.5062C88.8095 87.5374 85.5491 84.8213 83.1996 81.555C80.8623 78.3057 79.4143 74.493 79.2294 69.3119L78.2301 69.3475C78.4217 74.7201 79.9319 78.7248 82.3878 82.1389C84.8314 85.5361 88.199 88.3295 92.0573 91.2987L92.6672 90.5062ZM93.8852 90.9214C93.4596 90.9214 93.0313 90.7862 92.667 90.5061L92.0574 91.2988C92.6022 91.7177 93.2464 91.9214 93.8852 91.9214V90.9214ZM95.4721 90.1409C95.0781 90.6526 94.4861 90.9214 93.8852 90.9214V91.9214C94.7834 91.9214 95.6734 91.5187 96.2644 90.7509L95.4721 90.1409ZM95.1068 87.3365C95.9822 88.01 96.1456 89.2658 95.472 90.141L96.2645 90.7509C97.2749 89.4381 97.0298 87.5544 95.7167 86.5439L95.1068 87.3365ZM83.3245 70.713C83.6727 74.3535 84.8145 77.1342 86.7905 79.7028C88.752 82.2526 91.5274 84.5816 95.1068 87.3364L95.7167 86.544C92.1368 83.7888 89.4569 81.5289 87.5831 79.0931C85.7238 76.6761 84.6506 74.0744 84.32 70.6178L83.3245 70.713ZM84.5277 70.1942C84.3069 70.1942 84.085 70.185 83.8624 70.1671L83.782 71.1638C84.0305 71.1839 84.2791 71.1942 84.5277 71.1942V70.1942ZM88.827 68.972C87.5105 69.78 86.0309 70.1942 84.5277 70.1942V71.1942C86.2166 71.1942 87.877 70.7284 89.35 69.8243L88.827 68.972ZM91.4283 66.4458C90.7701 67.458 89.889 68.3202 88.8269 68.9721L89.35 69.8243C90.538 69.0952 91.5269 68.1284 92.2666 66.991L91.4283 66.4458ZM103.036 70.0007C98.4029 69.8484 95.055 68.7368 92.1673 66.3341L91.5277 67.1028C94.6265 69.6811 98.2061 70.8425 103.003 71.0002L103.036 70.0007ZM103.103 70.0019C103.082 70.0019 103.06 70.0015 103.038 70.0008L103.002 71.0001C103.036 71.0013 103.07 71.0019 103.103 71.0019V70.0019ZM105.101 68.0677C105.065 69.149 104.177 70.0019 103.103 70.0019V71.0019C104.715 71.0019 106.047 69.7229 106.1 68.1006L105.101 68.0677ZM103.168 66.0032C104.272 66.0394 105.137 66.9637 105.101 68.0677L106.1 68.1007C106.155 66.4447 104.857 65.058 103.201 65.0037L103.168 66.0032ZM92.835 61.3598C94.3869 63.18 95.9672 64.317 97.6791 65.0101C99.3844 65.7006 101.19 65.9379 103.168 66.0032L103.201 65.0037C101.277 64.9402 99.6045 64.7109 98.0544 64.0832C96.5108 63.4582 95.0579 62.4257 93.596 60.711L92.835 61.3598ZM86.4323 53.9172C89.9213 54.7525 92.3633 57.7048 92.7182 61.0876L93.7128 60.9833C93.3151 57.1931 90.5802 53.8819 86.6652 52.9447L86.4323 53.9172ZM73.2497 38.664C73.9044 46.061 79.1915 52.184 86.4324 53.9172L86.6651 52.9447C79.8415 51.3114 74.8626 45.5438 74.2458 38.5759L73.2497 38.664ZM73.2477 33.8027V38.6199H74.2477V33.8027H73.2477ZM83.579 25.4642C78.6732 25.4642 74.3434 28.9191 73.2601 33.692L74.2353 33.9134C75.215 29.5968 79.1393 26.4642 83.579 26.4642V25.4642ZM118.087 55.3338C115.62 38.3036 100.787 25.4642 83.579 25.4642V26.4642C100.29 26.4642 114.702 38.9388 117.097 55.4771L118.087 55.3338ZM124.386 98.8225L118.087 55.3338L117.097 55.4771L123.396 98.9659L124.386 98.8225ZM121.914 107.264C123.926 104.941 124.826 101.864 124.386 98.8225L123.396 98.9659C123.795 101.72 122.979 104.506 121.158 106.61L121.914 107.264ZM113.914 110.92C116.987 110.92 119.903 109.588 121.914 107.264L121.158 106.61C119.337 108.714 116.697 109.92 113.914 109.92V110.92ZM83.5792 110.92H113.914V109.92H83.5792V110.92ZM72.9982 100.339C72.9982 106.174 77.7443 110.92 83.5792 110.92V109.92C78.2966 109.92 73.9982 105.622 73.9982 100.339H72.9982ZM72.9982 90.2879V100.339H73.9982V90.2879H72.9982ZM70.9982 88.2879C72.1028 88.2879 72.9982 89.1835 72.9982 90.2879H73.9982C73.9982 88.6313 72.6552 87.2879 70.9982 87.2879V88.2879ZM68.9982 90.2879C68.9982 89.1835 69.8937 88.2879 70.9982 88.2879V87.2879C69.3413 87.2879 67.9982 88.6313 67.9982 90.2879H68.9982ZM68.9982 100.339V90.2879H67.9982V100.339H68.9982ZM83.5792 114.92C75.5396 114.92 68.9982 108.379 68.9982 100.339H67.9982C67.9982 108.931 74.9874 115.92 83.5792 115.92V114.92ZM113.914 114.92H83.5792V115.92H113.914V114.92ZM124.939 109.882C122.168 113.084 118.149 114.92 113.914 114.92V115.92C118.44 115.92 122.734 113.958 125.695 110.537L124.939 109.882ZM128.345 98.2494C128.952 102.44 127.711 106.68 124.939 109.882L125.695 110.537C128.657 107.115 129.983 102.584 129.335 98.106L128.345 98.2494ZM46.417 110.92C52.2519 110.92 56.998 106.174 56.998 100.339H55.998C55.998 105.622 51.6996 109.92 46.417 109.92V110.92ZM16.0815 110.92H46.417V109.92H16.0815V110.92ZM8.08118 107.264C10.0924 109.588 13.0086 110.92 16.0815 110.92V109.92C13.2989 109.92 10.6586 108.714 8.83731 106.61L8.08118 107.264ZM5.60966 98.8225C5.16911 101.864 6.06997 104.941 8.08122 107.264L8.83727 106.61C7.01602 104.506 6.20038 101.72 6.59933 98.9659L5.60966 98.8225ZM11.9087 55.3338L5.60966 98.8225L6.59933 98.9659L12.8983 55.4771L11.9087 55.3338ZM46.4167 25.4642C29.2088 25.4642 14.3755 38.3036 11.9087 55.3338L12.8983 55.4771C15.294 38.9388 29.7057 26.4642 46.4167 26.4642V25.4642ZM56.7356 33.6915C55.6511 28.9155 51.3312 25.4642 46.4167 25.4642V26.4642C50.8648 26.4642 54.7794 29.5929 55.7604 33.9129L56.7356 33.6915ZM56.748 38.6202V33.8022H55.748V38.6202H56.748ZM43.5634 53.9172C50.8043 52.184 56.0911 46.0613 56.746 38.6643L55.7499 38.5761C55.1329 45.5441 50.1542 51.3114 43.3306 52.9447L43.5634 53.9172ZM37.2778 61.0876C37.6327 57.7048 40.0747 54.7524 43.5634 53.9172L43.3306 52.9447C39.4158 53.8819 36.6808 57.1931 36.2832 60.9833L37.2778 61.0876ZM26.8277 66.0032C28.8063 65.9379 30.6115 65.7006 32.3169 65.01C34.0288 64.3169 35.6091 63.1798 37.161 61.3599L36.4 60.711C34.9381 62.4255 33.4852 63.4581 31.9416 64.0831C30.3914 64.7108 28.719 64.9402 26.7948 65.0037L26.8277 66.0032ZM24.8945 68.0678C24.8583 66.964 25.7237 66.0396 26.8277 66.0032L26.7948 65.0037C25.1388 65.0583 23.8407 66.4449 23.895 68.1006L24.8945 68.0678ZM26.892 70.0019C25.8181 70.0019 24.9301 69.1492 24.8945 68.0677L23.895 68.1006C23.9484 69.7232 25.2804 71.0019 26.892 71.0019V70.0019ZM26.9579 70.0008C26.9359 70.0015 26.9138 70.0019 26.892 70.0019V71.0019C26.9257 71.0019 26.9596 71.0013 26.9936 71.0001L26.9579 70.0008ZM37.8275 66.3348C34.94 68.737 31.5921 69.8484 26.9593 70.0007L26.9922 71.0002C31.7888 70.8425 35.3685 69.6814 38.467 67.1036L37.8275 66.3348ZM45.479 70.1922C42.6157 70.1922 40.0518 68.7378 38.5668 66.4472L37.7277 66.9912C39.3937 69.561 42.2707 71.1922 45.479 71.1922V70.1922ZM46.1336 70.1658C45.9153 70.1833 45.6968 70.1922 45.479 70.1922V71.1922C45.7242 71.1922 45.9692 71.1821 46.2134 71.1626L46.1336 70.1658ZM34.8889 87.3364C38.4686 84.5815 41.2441 82.2524 43.2056 79.7024C45.1816 77.1335 46.3233 74.3526 46.6712 70.7118L45.6758 70.6166C45.3454 74.0736 44.2723 76.6755 42.413 79.0927C40.5392 81.5286 37.8592 83.7886 34.279 86.544L34.8889 87.3364ZM34.5237 90.141C33.8502 89.2659 34.0137 88.01 34.889 87.3364L34.279 86.544C32.9662 87.5543 32.7208 89.438 33.7313 90.7509L34.5237 90.141ZM36.1105 90.9214C35.5096 90.9214 34.9176 90.6526 34.5237 90.1409L33.7313 90.7509C34.3224 91.5187 35.2124 91.9214 36.1105 91.9214V90.9214ZM37.3287 90.5061C36.9644 90.7862 36.5359 90.9214 36.1105 90.9214V91.9214C36.7491 91.9214 37.3935 91.7177 37.9383 91.2988L37.3287 90.5061ZM50.7661 69.3119C50.5814 74.493 49.1333 78.3057 46.796 81.555C44.4465 84.8213 41.1861 87.5374 37.3285 90.5062L37.9384 91.2987C41.7966 88.3295 45.1642 85.5361 47.6078 82.1389C50.0637 78.7248 51.5739 74.7201 51.7654 69.3475L50.7661 69.3119ZM56.2508 66.4857C54.6107 67.4172 52.8882 68.2111 51.0957 68.8595L51.4358 69.7999C53.2813 69.1323 55.0552 68.3147 56.7447 67.3552L56.2508 66.4857ZM56.9977 100.339V66.9204H55.9977V100.339H56.9977ZM56.498 99.8394H56.4977V100.839H56.498V99.8394ZM85.2686 58.7804C87.011 59.1976 88.0897 60.9553 87.6727 62.6981L88.6453 62.9308C89.1908 60.651 87.781 58.3537 85.5014 57.8079L85.2686 58.7804ZM68.2584 38.9739C69.0515 48.5748 75.8884 56.5347 85.2686 58.7804L85.5014 57.8079C76.5406 55.6626 70.0125 48.0611 69.2551 38.8915L68.2584 38.9739ZM68.2482 38.7269C68.2482 38.8087 68.2515 38.8917 68.2585 38.9747L69.255 38.8907C69.2505 38.8372 69.2482 38.7822 69.2482 38.7269H68.2482ZM68.2482 9.82544V38.7269H69.2482V9.82544H68.2482ZM64.9982 6.57544C66.7898 6.57544 68.2482 8.03383 68.2482 9.82544H69.2482C69.2482 7.48155 67.3421 5.57544 64.9982 5.57544V6.57544ZM61.7482 9.82544C61.7482 8.03383 63.2066 6.57544 64.9982 6.57544V5.57544C62.6544 5.57544 60.7482 7.48155 60.7482 9.82544H61.7482ZM61.7482 38.7274V9.82544H60.7482V38.7274H61.7482ZM61.738 38.9752C61.745 38.8922 61.7482 38.8092 61.7482 38.7274H60.7482C60.7482 38.7827 60.746 38.8377 60.7415 38.8912L61.738 38.9752ZM44.7276 58.7805C54.1078 56.535 60.9447 48.575 61.738 38.9744L60.7414 38.892C59.9838 48.0613 53.4556 55.6629 44.4948 57.8079L44.7276 58.7805ZM42.3233 62.6978C41.9063 60.9554 42.9852 59.1977 44.7277 58.7804L44.4948 57.8079C42.2153 58.3537 40.8052 60.651 41.3507 62.9306L42.3233 62.6978ZM45.479 65.1927C43.9723 65.1927 42.6753 64.1686 42.3233 62.6978L41.3507 62.9306C41.8102 64.8498 43.5082 66.1927 45.479 66.1927V65.1927ZM46.2414 65.1019C45.9886 65.1622 45.732 65.1927 45.479 65.1927V66.1927C45.812 66.1927 46.1464 66.1526 46.4736 66.0745L46.2414 65.1019ZM61.6014 55.593C57.614 60.3628 52.3038 63.6506 46.2411 65.1019L46.4739 66.0744C52.7452 64.5732 58.243 61.1696 62.3686 56.2344L61.6014 55.593ZM62.5955 54.3361C62.2805 54.7575 61.9456 55.1809 61.6013 55.5931L62.3687 56.2342C62.7244 55.8085 63.0705 55.3709 63.3965 54.9348L62.5955 54.3361ZM64.9982 53.1324C64.0523 53.1324 63.1619 53.5786 62.5956 54.336L63.3964 54.9349C63.7741 54.4298 64.3677 54.1324 64.9982 54.1324V53.1324ZM67.4009 54.3359C66.8346 53.5789 65.9443 53.1324 64.9982 53.1324V54.1324C65.6287 54.1324 66.2224 54.43 66.6001 54.9349L67.4009 54.3359ZM68.3958 55.5937C68.0517 55.1817 67.7169 54.7585 67.4009 54.3359L66.6001 54.935C66.927 55.3719 67.2728 55.8092 67.6282 56.2347L68.3958 55.5937ZM83.7559 65.1019C77.6927 63.6506 72.3825 60.3628 68.3956 55.5935L67.6284 56.2349C71.7535 61.1696 77.2513 64.5732 83.5231 66.0745L83.7559 65.1019ZM86.2121 64.7111C85.4713 65.166 84.6009 65.3047 83.7562 65.102L83.5228 66.0744C84.6261 66.3392 85.7687 66.1569 86.7354 65.5633L86.2121 64.7111ZM87.6727 62.6981C87.4706 63.543 86.953 64.2564 86.2122 64.7111L86.7353 65.5633C87.702 64.97 88.3814 64.0338 88.6453 62.9308L87.6727 62.6981Z" fill="white"/>
</svg>
