<svg width="115" height="130" viewBox="0 0 115 130" fill="none" xmlns="http://www.w3.org/2000/svg">
<path fill-rule="evenodd" clip-rule="evenodd" d="M67.3055 4.01393C71.5 2.21544 76.016 1.28847 80.5797 1.28877C99.181 1.29024 114.26 16.3706 114.258 34.9722C114.264 48.8652 110.36 62.4795 102.994 74.2594L102.32 75.3424L92.1339 120.172C91.1471 124.511 87.6356 127.824 83.2462 128.556C77.2732 129.552 71.6239 125.517 70.6276 119.544L63.5492 77.0907C63.1263 74.5676 61.1491 72.5907 58.626 72.1674C55.359 71.6198 52.2667 73.8238 51.719 77.0907L44.6406 119.547C43.911 123.94 40.5959 127.455 36.2528 128.441C30.3489 129.78 24.4765 126.081 23.1366 120.177L12.9485 75.3471L12.2737 74.2641C4.90547 62.4834 1.00029 48.8673 1.00501 34.9722C1.00472 30.4085 1.93198 25.8925 3.73017 21.698C11.0601 4.60143 30.8615 -3.31599 47.958 4.01393C54.1383 6.64678 61.1252 6.64678 67.3055 4.01393ZM98.101 73.1811L98.9881 71.7654C105.886 60.7333 109.543 47.9837 109.54 34.9722C109.539 31.0508 108.743 27.1704 107.198 23.5661C100.898 8.8623 83.8709 2.05028 69.1671 8.35059C61.7982 11.4946 53.4653 11.4946 46.0964 8.35059C42.4918 6.80221 38.6093 6.00589 34.6861 6.01002C18.6982 6.02831 5.74219 18.9843 5.72391 34.9722C5.72037 47.9843 9.37663 60.735 16.2754 71.7678L17.1625 73.1835C17.3017 73.4079 17.4035 73.6533 17.4645 73.9102L27.7375 119.124C28.2982 121.6 30.3017 123.489 32.8056 123.904C36.2071 124.468 39.4218 122.167 39.9854 118.766L47.0638 76.3097C47.8173 71.7964 51.3538 68.2599 55.8672 67.5063C61.7038 66.5316 67.2253 70.4734 68.1997 76.3097L75.278 118.763C75.6954 121.263 77.582 123.263 80.0536 123.825C83.417 124.59 86.7635 122.483 87.5283 119.12L97.799 73.9078C97.86 73.6509 97.9618 73.4056 98.101 73.1811Z" fill="#007DF2"/>
<path d="M80.5797 1.28877L80.5798 0.788768H80.5798L80.5797 1.28877ZM67.3055 4.01393L67.5014 4.47393L67.5025 4.47347L67.3055 4.01393ZM114.258 34.9722L113.758 34.9722V34.9724L114.258 34.9722ZM102.994 74.2594L102.571 73.9943L102.57 73.995L102.994 74.2594ZM102.32 75.3424L101.895 75.0779L101.851 75.1494L101.832 75.2316L102.32 75.3424ZM92.1339 120.172L92.6215 120.283L92.6215 120.283L92.1339 120.172ZM83.2462 128.556L83.3284 129.049H83.3284L83.2462 128.556ZM70.6276 119.544L70.1344 119.626L70.1344 119.627L70.6276 119.544ZM63.5492 77.0907L64.0424 77.0085L64.0424 77.0081L63.5492 77.0907ZM58.626 72.1674L58.7087 71.6743L58.7086 71.6743L58.626 72.1674ZM51.719 77.0907L51.2258 77.008L51.2258 77.0085L51.719 77.0907ZM44.6406 119.547L44.1474 119.464L44.1474 119.465L44.6406 119.547ZM36.2528 128.441L36.3634 128.928L36.2528 128.441ZM23.1366 120.177L23.6242 120.066L23.6242 120.066L23.1366 120.177ZM12.9485 75.3471L13.4361 75.2363L13.4174 75.1542L13.3729 75.0827L12.9485 75.3471ZM12.2737 74.2641L12.6981 73.9997L12.6976 73.999L12.2737 74.2641ZM1.00501 34.9722L1.50501 34.9724V34.9722L1.00501 34.9722ZM3.73017 21.698L3.27063 21.501L3.27062 21.501L3.73017 21.698ZM47.958 4.01393L47.761 4.47348L47.762 4.47393L47.958 4.01393ZM98.9881 71.7654L99.4118 72.031L99.4121 72.0305L98.9881 71.7654ZM98.101 73.1811L97.6773 72.9156L97.6761 72.9176L98.101 73.1811ZM109.54 34.9722L109.04 34.9723V34.9723L109.54 34.9722ZM107.198 23.5661L106.739 23.763L106.739 23.763L107.198 23.5661ZM69.1671 8.35059L69.3633 8.81048L69.364 8.81018L69.1671 8.35059ZM46.0964 8.35059L45.8991 8.81L45.9002 8.81048L46.0964 8.35059ZM34.6861 6.01002L34.6856 5.51002H34.6855L34.6861 6.01002ZM5.72391 34.9722L5.22391 34.9717V34.9721L5.72391 34.9722ZM16.2754 71.7678L15.8514 72.0329L15.8517 72.0333L16.2754 71.7678ZM17.1625 73.1835L17.5874 72.9199L17.5862 72.918L17.1625 73.1835ZM17.4645 73.9102L17.9521 73.7994L17.951 73.7946L17.4645 73.9102ZM27.7375 119.124L28.2252 119.014L28.2251 119.013L27.7375 119.124ZM32.8056 123.904L32.8874 123.411H32.8874L32.8056 123.904ZM39.9854 118.766L39.4922 118.683L39.4922 118.684L39.9854 118.766ZM47.0638 76.3097L46.5706 76.2274L46.5706 76.2275L47.0638 76.3097ZM55.8672 67.5063L55.9495 67.9995H55.9495L55.8672 67.5063ZM68.1997 76.3097L68.6929 76.2275L68.6929 76.2274L68.1997 76.3097ZM75.278 118.763L74.7849 118.845L74.7849 118.846L75.278 118.763ZM80.0536 123.825L80.1644 123.337L80.1644 123.337L80.0536 123.825ZM87.5283 119.12L88.0159 119.23L88.0159 119.23L87.5283 119.12ZM97.799 73.9078L97.3125 73.7922L97.3114 73.7971L97.799 73.9078ZM80.5798 0.788768C75.9483 0.788468 71.3652 1.7292 67.1084 3.55439L67.5025 4.47347C71.6347 2.70169 76.0837 1.78848 80.5797 1.78877L80.5798 0.788768ZM114.758 34.9723C114.76 16.0945 99.4572 0.790264 80.5798 0.788768L80.5797 1.78877C98.9048 1.79022 113.76 16.6468 113.758 34.9722L114.758 34.9723ZM103.418 74.5245C110.834 62.6651 114.764 48.9589 114.758 34.972L113.758 34.9724C113.764 48.7716 109.887 62.294 102.571 73.9943L103.418 74.5245ZM102.744 75.6068L103.419 74.5238L102.57 73.995L101.895 75.0779L102.744 75.6068ZM92.6215 120.283L102.807 75.4531L101.832 75.2316L91.6464 120.061L92.6215 120.283ZM83.3284 129.049C87.9181 128.283 91.5897 124.82 92.6215 120.283L91.6464 120.061C90.7046 124.202 87.3532 127.364 83.1639 128.062L83.3284 129.049ZM70.1344 119.627C71.1761 125.872 77.0831 130.09 83.3284 129.049L83.164 128.062C77.4634 129.013 72.0716 125.163 71.1208 119.462L70.1344 119.627ZM63.056 77.173L70.1344 119.626L71.1208 119.462L64.0424 77.0085L63.056 77.173ZM58.5432 72.6606C60.8561 73.0485 62.6684 74.8607 63.0561 77.1734L64.0424 77.0081C63.5842 74.2745 61.4421 72.1328 58.7087 71.6743L58.5432 72.6606ZM52.2121 77.1734C52.7141 74.1788 55.5486 72.1585 58.5433 72.6606L58.7086 71.6743C55.1694 71.081 51.8192 73.4687 51.2258 77.008L52.2121 77.1734ZM45.1338 119.629L52.2122 77.173L51.2258 77.0085L44.1474 119.464L45.1338 119.629ZM36.3634 128.928C40.9047 127.898 44.3709 124.222 45.1339 119.629L44.1474 119.465C43.451 123.658 40.2872 127.012 36.1421 127.953L36.3634 128.928ZM22.649 120.287C24.05 126.46 30.1902 130.329 36.3634 128.928L36.1421 127.953C30.5075 129.232 24.903 125.701 23.6242 120.066L22.649 120.287ZM12.461 75.4579L22.6491 120.287L23.6242 120.066L13.4361 75.2363L12.461 75.4579ZM11.8494 74.5285L12.5242 75.6115L13.3729 75.0827L12.6981 73.9997L11.8494 74.5285ZM0.505013 34.9721C0.500263 48.961 4.43181 62.669 11.8498 74.5292L12.6976 73.999C5.37914 62.2978 1.50033 48.7737 1.50501 34.9724L0.505013 34.9721ZM3.27062 21.501C1.44574 25.7577 0.504714 30.3407 0.505013 34.9723L1.50501 34.9722C1.50472 30.4762 2.41822 26.0273 4.18973 21.895L3.27062 21.501ZM48.155 3.55438C30.8047 -3.88435 10.7094 4.15061 3.27063 21.501L4.18972 21.895C11.4108 5.05225 30.9182 -2.74763 47.761 4.47347L48.155 3.55438ZM67.1095 3.55393C61.0544 6.13344 54.209 6.13344 48.154 3.55393L47.762 4.47393C54.0675 7.16011 61.196 7.16011 67.5014 4.47393L67.1095 3.55393ZM98.5644 71.4999L97.6773 72.9156L98.5247 73.4466L99.4118 72.031L98.5644 71.4999ZM109.04 34.9723C109.043 47.89 105.413 60.5477 98.5642 71.5004L99.4121 72.0305C106.36 60.9188 110.043 48.0774 110.04 34.9721L109.04 34.9723ZM106.739 23.763C108.257 27.3051 109.039 31.1185 109.04 34.9723L110.04 34.9722C110.039 30.9831 109.229 27.0357 107.658 23.3691L106.739 23.763ZM69.364 8.81018C83.814 2.61862 100.547 9.31306 106.739 23.763L107.658 23.3692C101.249 8.41154 83.9277 1.48194 68.9702 7.89101L69.364 8.81018ZM45.9002 8.81048C53.3944 12.0079 61.8691 12.0079 69.3633 8.81048L68.9709 7.8907C61.7274 10.9812 53.5361 10.9812 46.2926 7.8907L45.9002 8.81048ZM34.6866 6.51002C38.5418 6.50596 42.3569 7.28847 45.8991 8.81L46.2937 7.89118C42.6266 6.31594 38.6768 5.50582 34.6856 5.51002L34.6866 6.51002ZM6.22391 34.9728C6.24188 19.2606 18.9745 6.52799 34.6867 6.51002L34.6855 5.51002C18.4219 5.52862 5.24251 18.7081 5.22391 34.9717L6.22391 34.9728ZM16.6993 71.5027C9.8503 60.5495 6.22039 47.8906 6.22391 34.9724L5.22391 34.9721C5.22034 48.0779 8.90296 60.9206 15.8514 72.0329L16.6993 71.5027ZM17.5862 72.918L16.699 71.5023L15.8517 72.0333L16.7388 73.449L17.5862 72.918ZM17.951 73.7946C17.8776 73.4858 17.7552 73.1904 17.5874 72.9199L16.7376 73.447C16.8483 73.6255 16.9294 73.8208 16.9781 74.0258L17.951 73.7946ZM28.2251 119.013L17.9521 73.7994L16.9769 74.021L27.25 119.235L28.2251 119.013ZM32.8874 123.411C30.5839 123.029 28.7409 121.291 28.2252 119.014L27.2499 119.235C27.8555 121.908 30.0194 123.949 32.7239 124.397L32.8874 123.411ZM39.4922 118.684C38.9737 121.813 36.0164 123.929 32.8874 123.411L32.7239 124.397C36.3978 125.006 39.87 122.521 40.4787 118.847L39.4922 118.684ZM46.5706 76.2275L39.4922 118.683L40.4786 118.848L47.557 76.392L46.5706 76.2275ZM55.7848 67.0132C51.0609 67.8019 47.3593 71.5035 46.5706 76.2274L47.5569 76.3921C48.2753 72.0894 51.6468 68.7179 55.9495 67.9995L55.7848 67.0132ZM68.6929 76.2274C67.673 70.1187 61.8939 65.9929 55.7848 67.0132L55.9495 67.9995C61.5138 67.0703 66.7775 70.8281 67.7065 76.3921L68.6929 76.2274ZM75.7712 118.681L68.6929 76.2275L67.7065 76.392L74.7849 118.845L75.7712 118.681ZM80.1644 123.337C77.8908 122.82 76.1551 120.981 75.7712 118.681L74.7849 118.846C75.2356 121.546 77.2733 123.706 79.9427 124.312L80.1644 123.337ZM87.0407 119.009C86.3372 122.103 83.2585 124.041 80.1644 123.337L79.9427 124.312C83.5754 125.138 87.1899 122.863 88.0159 119.23L87.0407 119.009ZM97.3114 73.7971L87.0407 119.009L88.0159 119.23L98.2866 74.0186L97.3114 73.7971ZM97.6761 72.9176C97.5083 73.188 97.3859 73.4834 97.3125 73.7922L98.2854 74.0234C98.3341 73.8185 98.4152 73.6231 98.5259 73.4447L97.6761 72.9176Z" fill="#007DF2"/>
</svg>
